<svg xmlns="http://www.w3.org/2000/svg" width="36" height="14.4" viewBox="0 0 36 14.4">
  <g>
    <path fill="rgb(95,99,104)" fill-rule="evenodd" d="M17.1381607 7.04220581v4.21868897h-1.3214798V.8470459h3.50479127c.8454132-.01660156 1.65799713.3072815 2.27359772.9052124.61559295.55639649.96032714 1.36190796.94390869 2.19238281.01641845.83874512-.32831574 1.64428711-.9439087 2.20898438-.61560058.58963013-1.37072753.88858032-2.26538848.88858032h-2.1915207zm0-4.91625977v3.63735962h2.21614075c.49247742.01663208.96853638-.18267822 1.30506134-.5397644.69767762-.68096924.70588684-1.8020935.03283692-2.50796509l-.03283692-.03323364c-.33652496-.36538696-.81258392-.56469727-1.30506134-.5480957l-2.21614074-.00830079zm10.7606125 2.56610108c-.56635285-.52319336-1.33789826-.78894043-2.31464387-.78894043-1.2558136 0-2.19972229.46505737-2.8317337 1.38684082l1.16552734.73910522c.43502045-.63113403 1.01778412-.9467163 1.75649262-.9467163.46785736 0 .91928863.17440795 1.27223205.48995971.3447342.29067993.54172516.72250366.54172516 1.17926026v.30725097c-.50889587-.28234863-1.14910888-.43182373-1.93707275-.43182373-.91928864 0-1.65800476.21591187-2.20793152.6560669-.54993439.4401245-.82900238 1.02145385-.82900238 1.76052856-.01641846.67266846.27085876 1.3121338.77975464 1.74395752.51709747.46505737 1.17372894.6975708 1.94527435.6975708.91108704 0 1.6333847-.40692138 2.18331146-1.22076416h.05745697v.98825073h1.26402283V6.86779785c0-.92178345-.279068-1.6442871-.8454132-2.17575073zm3.68535613 9.7079773L36 4.13565062l-1.43639374.00830079-2.04376983 5.11557006h-.03283692l-2.0930252-5.11557006H28.9575882l2.90560913 6.66851806-1.6415863 3.58755493h1.3625183zm-7.7072525-5.32321168c0 .3487854.16416168.67266846.43502045.87197876.29548645.23251343.65663147.35708619 1.02599334.3487854.558136 0 1.09165192-.22421264 1.48563386-.62283325.43502044-.41522217.6566391-.90518188.6566391-1.46990967-.4104004-.33218383-.98495484-.4982605-1.72367097-.4982605-.53351593 0-.9849472.13287354-1.34609985.39031983-.35294342.26574707-.53351593.58959961-.53351593.97991943z"/>
    <path fill="rgb(66,133,244)" fill-rule="evenodd" d="M11.79479593 6.12871853c0-.40692033-.03283174-.81384067-.09849523-1.21245651H6.12311197v2.30034557h3.19288721c-.13132698.7391002-.55813967 1.40345994-1.18194282 1.81868477v1.4948094h1.90424121c1.11627934-1.03806208 1.75649836-2.57439396 1.75649836-4.40138323z"/>
    <path fill="rgb(52,168,83)" fill-rule="evenodd" d="M6.12311197 11.97508418c1.59233964 0 2.93844119-.53148779 3.9151856-1.44498242l-1.90424121-1.4948094c-.53351586.36539785-1.21477457.57301027-2.01094439.57301027-1.54309202 0-2.84815389-1.05467107-3.31600625-2.4664355H.84540895V8.6865035c1.00136822 2.0096882 3.04514436 3.28858068 5.27770302 3.28858068z"/>
    <path fill="rgb(251,188,4)" fill-rule="evenodd" d="M2.80710572 7.14186712c-.2462381-.7391002-.2462381-1.54463637 0-2.29204107V3.31349417H.84540895C0 4.99944509 0 6.99224807.84540895 8.678199l1.96169677-1.53633189z"/>
    <path fill="rgb(234,67,53)" fill-rule="evenodd" d="M6.12311197 2.38339054c.84541744-.016609 1.65800313.30726638 2.26539041.89688564l1.68262694-1.70242182C9.0040976.55640128 7.59233256 0 6.12311197.016609c-2.23255866 0-4.2763348 1.27889249-5.27770302 3.29688518l1.96169677 1.54463637c.46785236-1.42006892 1.77291423-2.47474 3.31600625-2.47474z"/>
  </g>
</svg>
