<svg xmlns="http://www.w3.org/2000/svg" xmlns:xlink="http://www.w3.org/1999/xlink" width="48" height="46" viewBox="0 0 48 46">
  <defs>
    <path id="path-1" fill-rule="evenodd" d="M9.19999695 34.87982178c.73521423.70788574 1.743721 1.11132812 2.80000305 1.11999511h23.99999237c2.20640564-.00616455 3.9934082-1.67401123 4-3.73327636V15.46673584c-.0065918-2.05932617-1.79359436-3.72717285-4-3.73327637h-3.19999695l-3-2.79998779c-.57519531-.56652832-1.36444854-.90136719-2.19999695-.93334961h-7c-.90286254-.00720215-1.7697525.32989502-2.40000152.93334961l-3 2.7999878H12c-2.20640564.0061035-3.9934082 1.67395019-4 3.73327636v16.79980469c.00930786.98583984.4415207 1.92712402 1.19999695 2.61328125zM24 15.4666748c4.41827393 0 8 3.34289551 8 7.46655274 0 4.12371826-3.58172607 7.46661377-8 7.46661377-4.41828156 0-8-3.3428955-8-7.46661377.01317596-4.11853027 3.58718872-7.45422363 8-7.46655274zm-.00000763 11.19989014c2.20913696 0 4-1.67144775 4-3.73327637 0-2.0618286-1.79086304-3.73327636-4-3.73327636s-4 1.67144775-4 3.73327636c.0065918 2.05932618 1.79359436 3.72717286 4 3.73327637z"/>
    <filter id="filter-2" width="200%" height="200%" x="-50%" y="-50%" color-interpolation-filters="sRGB" filterUnits="userSpaceOnUse">
      <feOffset dx="0" dy="2" in="SourceAlpha" result="shadow-1-feOffset-shadow"/>
      <feGaussianBlur in="shadow-1-feOffset-shadow" result="shadow-1-feGaussianBlur-shadow" stdDeviation="4.819"/>
      <feColorMatrix in="shadow-1-feGaussianBlur-shadow" result="shadow-1-feColorMatrix-shadow" type="matrix" values="0 0 0 0 1  0 0 0 0 1  0 0 0 0 1  0 0 0 0.8 0"/>
      <feOffset dx="0" dy="-2" in="SourceAlpha" result="shadow-2-feOffset-shadow"/>
      <feGaussianBlur in="shadow-2-feOffset-shadow" result="shadow-2-feGaussianBlur-shadow" stdDeviation="3.614"/>
      <feColorMatrix in="shadow-2-feGaussianBlur-shadow" result="shadow-2-feColorMatrix-shadow" type="matrix" values="0 0 0 0 1  0 0 0 0 1  0 0 0 0 1  0 0 0 0.5 0"/>
      <feMerge>
        <feMergeNode in="shadow-1-feColorMatrix-shadow"/>
        <feMergeNode in="shadow-2-feColorMatrix-shadow"/>
      </feMerge>
    </filter>
    <linearGradient id="linearGradient-3" x1="20.48" x2="43.2" y1="12.2" y2="35.16" gradientUnits="userSpaceOnUse">
      <stop offset="0" stop-color="rgb(174,174,192)"/>
      <stop offset="1" stop-color="rgb(198,198,210)"/>
    </linearGradient>
  </defs>
  <g>
    <use fill="black" stroke="black" stroke-opacity="0" stroke-width="0" filter="url(#filter-2)" xlink:href="#path-1"/>
    <use fill="url(#linearGradient-3)" xlink:href="#path-1"/>
  </g>
</svg>
