<svg xmlns="http://www.w3.org/2000/svg" width="36" height="13.2" viewBox="0 0 36 13.2">
  <g>
    <path fill="rgb(2,185,239)" fill-rule="evenodd" d="M28.17594404 2.78555133l.29777626-.2676806c1.0347725-.98707225 2.35987685-.878327 3.24576123.29277566.08933288.11711026.13399931.12547528.2233322.02509505.05955524-.07528517.1265549-.1338403.18611015-.20912547.6923298-.76121673 1.6079918-.98707224 2.46409855-.56045627.90077319.45171102 1.3846596 1.24638783 1.39210402 2.35893536.0148888 2.40076045.0074444 4.7931559.0074444 7.19391635 0 .85323194-.4689976 1.38859315-1.22088266 1.38859315-.29777626 0-.59555252-.02509505-.89332878.00836502-.30522067.03346008-.39455354-.07528517-.39455354-.43498099.0148888-2.34220532.0074444-4.68441064.0074444-7.02661597v-.29277566c-.0074444-.54372624-.20099897-.76958175-.66255218-.7946768-.41688676-.02509506-.70721861.25931558-.75188505.73612167-.0074444.10874524 0 .2258555 0 .33460076v6.06463878c0 .88669201-.4541088 1.4053232-1.24321589 1.39695817-.40199795-.00836502-.94543962.20076046-1.17621622-.0920152-.20099898-.25095058-.06699966-.84486693-.06699966-1.28821293V5.38707224c0-.73612167-.42433117-1.11254753-.97521725-.86159695-.3424427.15893536-.4541088.46844106-.4541088.86996197.00744441 1.94068441 0 3.8730038 0 5.81368822v.46007604c-.02233321.81140685-.48388642 1.321673-1.19854944 1.33003802-.29777626.00836502-.59555252-.02509505-.89332878.00836502-.32010948.03346008-.41688676-.06692015-.40944236-.45171102.01488882-3.28745248.00744441-6.57490495.00744441-9.87072244 0-.14220532.0074444-.27604562 0-.41825095-.01488881-.18403042.05211085-.24258555.21588779-.24258555.6848854.00836502 1.36232639.00836502 2.04721178 0 .17122135 0 .25310982.05019011.23822101.25931559-.01488881.15057034 0 .28441065.0074444.50190114z"/>
    <path fill="rgb(6,48,111)" fill-rule="evenodd" d="M12.39379883 10.74904785V7.31939087c0-.39874268.00082397-.79840088.00164795-1.19805908.0016632-.79934693.00331115-1.59866333-.00164795-2.39053345-.0074463-1.0038147-.61044312-1.68139648-1.49632263-1.68139648-.2782135 0-.55558777-.00094605-.83268738-.00186158-.55335999-.00186157-1.10562134-.00372314-1.66119385.00186158-.08898926 0-.1860199-.0090332-.28375244-.01815796-.25386047-.02368164-.51243591-.04779053-.64680481.085083-.15374756.15490723-.1224823.44979859-.0917511.73968506.01242066.11715699.02474976.23349.02474976.3394165-.00743103.90341187.44667053 1.40530396 1.2655487 1.42205811.33500672.00836182.66999817.00836182 1.00500489 0 .29777526-.01675415.43177795.13381958.43177795.46844483.00744629.33459472-.11166382.53533935-.42433167.54370117-.10643005 0-.21368408-.00091553-.32121276-.00186157-.21589661-.00186158-.43289185-.00372315-.64656067.00186157C7.49537659 5.64638672 6.57226562 6.6 6.51271057 7.95513306c-.04466247.94522094-.03721619 1.89883423.00744629 2.84408569.05955505 1.3216858.92311096 2.2000122 2.09931946 2.21673584.38739014.00558472.77809143.00372314 1.16767883.00186157.19438172-.00094604.38847351-.00186157.5817566-.00186157 1.32510375-.00836182 2.01744079-.7779541 2.02488708-2.26690674zM10.1158142 8.80001221v.4182434c-.00297546.07693482.00119018.15655518.0053711.23614502.00624084.11947632.01249694.23895264-.0053711.34939576-.01472473.07089233-.00210571.15783691.01063537.24569702.03237916.22311401.06562806.45223999-.34562683.44024658-.7742157-.02508545-1.0124359-.184021-1.0198822-.78631592-.00744629-.35131836-.00744629-.69430542 0-1.04562378.0074463-.44335937.21588135-.66082763.59555054-.67758178.36524963-.01608277.55479431-.02444458.65318298.06619262.10614014.09777832.10614014.31079102.10614014.75360108z"/>
    <path fill="rgb(6,48,111)" fill-rule="evenodd" d="M19.01932406 6.40760456c0 1.27984791.0148888 2.56806084-.00744441 3.84790875-.01488881.98707224-.2233322 1.88212928-1.07199454 2.40912547-.3424427.20912548-.71466302.32623574-1.10177216.33460076-.85610674.01673004-1.71221349 0-2.56832023.01673004-.20844339 0-.25310983-.08365019-.24566542-.29277566.01488881-.3513308-.0074444-.69429658.0074444-1.04562738.01488882-.66920152.46899762-1.17946768 1.06455014-1.20456274.38710913-.01673004.76677386-.00836502 1.153883 0 .31266507 0 .48388642-.14220532.48388642-.51863118 0-.38479087-.16377694-.51863118-.47644201-.5269962-.52110846-.01673003-1.04221691.06692016-1.55588096-.10038022-.88588437-.29277567-1.53354774-1.12091255-1.55588095-2.14980989-.04466644-1.6311787-.01488882-3.26235741-.02233322-4.89353612 0-.18403042.05211084-.24258555.21588778-.23422053.61044134.00836502 1.21343826.01673004 1.8238796 0 .26799863-.00836502.2307766.15893536.2307766.34296578V6.0730038c0 .53536122.22333219.81977187.64021895.8365019.49133083.01673004.70721862-.20912547.70721862-.76958175 0-1.2380228.0074444-2.48441064-.0074444-3.72243346 0-.29277566.06699965-.37642585.32755388-.36806083.54344167.02509505 1.09432775.03346007 1.63776943 0 .29777626-.01673004.3424427.10874524.33499829.40152091-.02233322 1.31330799-.01488881 2.63498099-.01488881 3.956654z"/>
    <path fill="rgb(6,48,111)" fill-rule="evenodd" d="M.05096436 4.20760498v4.09887695c0 .38446045-.00082398.76989746-.00164795 1.15560913-.00164795.77236939-.00331116 1.54595948.00164795 2.31585694.00228881.12329101-.01156617.2592163-.02540589.39492798-.03123474.30621338-.06233215.61132812.09240723.76782226.17196655.17510987.46421814.1366272.75349426.09854126.11143494-.01467895.22242737-.02929687.325943-.0316162.63278198-.00836183 1.08688354-.52700807 1.10177612-1.24639893.00744629-.33459473.01489258-.66918946 0-1.0038147-.0074463-.22583008.07444763-.29275513.26055908-.28439331.40943909.00836181.81887817.01672363 1.22831726 0 1.35488892-.0418396 2.15144348-.97033692 2.15144348-2.49276734 0-.40432739.00082398-.80862426.00164795-1.21295166.0016632-.80862426.00331116-1.61721801-.00164795-2.42584228-.00744629-1.1459961-.63278198-2.00759888-1.62287903-2.22509766-.54345703-.11743164-1.09060669-.09884643-1.63882446-.08023071-.23278809.00787353-.46575928.0158081-.69873047.01330566C.78051758 2.03270874.05096436 2.86922607.05096436 4.20760498zm2.24822998 2.84411621v-.79467773c0-.11514283.00047302-.23031617.00093078-.34533692.00140381-.34451294.00279236-.6878662-.00837707-1.02651977 0-.20077515.05955505-.25930786.23822021-.25930786.08770752.00073242.16937256.0003662.24533081 0 .7750702-.00366211.9566803-.0045166.91600037 1.22964477-.01341248.28115845-.01072693.56533814-.00804138.84890747.00178527.18890381.00357055.37750244.00059509.56478882-.00744629.4098816-.17866516.61062622-.54344177.644104-.40545655.04031373-.61549378.06118775-.72428894-.03381347-.1169281-.10214234-.1169281-.33813477-.1169281-.8277893z"/>
    <path fill="rgb(2,185,239)" fill-rule="evenodd" d="M21.1260911 8.32319392c0-1.11254753-.00744441-2.23346008.0074444-3.3460076 0-.2593156-.05211085-.36806084-.30522067-.35969583-.33499829.01673004-.78166268.12547529-.96777284-.05855513-.2307766-.24258555-.05211085-.76121673-.08188847-1.16273764v-.0836502c0-.39315589-.1116661-.85323193.03722203-1.1460076.14888813-.29277566.60299693-.10874524.9231064-.20076045.63277456-.18403042 1.10921657-.59391635 1.4963257-1.16273764.26799864-.38479088.60299693-.6608365 1.03477251-.75285172.2307766-.05019011.37222033-.01673003.35733151.31787073-.02233322.46844106 0 .94524714-.0074444 1.42205323-.00744441.20076045.05955525.2676806.238221.25931559.29777626-.00836502.59555252.00836502.89332878-.00836502.17866576-.00836502.23822101.06692015.2307766.2676806-.0074444.68593157-.0074444 1.3634981 0 2.04942966 0 .19239544-.04466644.29277567-.2307766.26768061-.03722203-.00836502-.07444406 0-.1116661 0-.32755388.03346008-.78166268-.16730038-.95288403.0836502-.16377694.23422053-.05955525.71939163-.05955525 1.09581748 0 2.27528518-.0074444 4.54220533.0074444 6.8174905 0 .31787072-.07444406.41825095-.3573315.3931559-.26799864-.02509507-.54344168 0-.81888472-.00836503-.8039959-.03346007-1.33254876-.64410646-1.33254876-1.54752851V8.32319392z"/>
  </g>
</svg>
