<svg xmlns="http://www.w3.org/2000/svg" width="35.5" height="25.534" viewBox="0 0 35.5 25.534">
  <g>
    <path fill="rgb(95,37,159)" fill-rule="evenodd" d="M16.95025635 14.17269897c.21646118.0281067.43515014.04244996.65274048.06341553h.5748291c.22879028-.02316284.45928955-.03640747.68640136-.07058716 1.81079102-.26852417 3.33447266-1.06420898 4.51608277-2.4427185 1.40310669-1.63491822 1.95602417-3.53393555 1.64761352-5.64859009-.26135254-1.79315186-1.12161254-3.2880249-2.54769897-4.43658447C20.82531738.30267334 18.90966797-.22390747 16.78759766.08654785 14.84335327.37051392 13.2680664 1.3095398 12.0769348 2.84631348c-.850708 1.09729004-1.31784057 2.34677124-1.43002319 3.72253418-.06756592.78823852.0041504 1.58203125.21200562 2.34622192.37329101 1.41629028 1.18548584 2.6833191 2.32391357 3.62545776 1.0890503.91146851 2.3508606 1.44744873 3.76742554 1.63217163zM14.51525879 4.8070984h1.75415039l.00057983-.00439453h1.7541504c.00878906 0 .0184021.00100708.02822875.00201416.03463746.00357055.07171631.00738525.08392334-.03125.00952149-.02935791-.01763916-.0501709-.04293823-.06954956-.00750732-.0057373-.01483154-.01135254-.0209961-.01702881-1.11764526-1.04159546-2.2347412-2.08428955-2.2347412-2.08428955-.02868653-.02526856-.05599976-.05194092-.08187867-.07995606-.0734558-.08273315-.06225585-.21395874.04263306-.24813842.34487915-.11413575.67684937-.27514649 1.05090332-.27957154.230896-.00360107.45043945.09823609.5944519.2756958.90905762 1.02508545 1.81417847 2.05343628 1.81417847 2.05343628.10598755.11911011.21365357.2376709.31738282.35897827.04589843.05703736.11743164.0881958.19125366.08325196.41497802-.0032959.83053589 0 .83053589 0 .3168335.00274658.52767944.20843506.5316162.51721191v.34020996c0 .17370606-.05047607.22607422-.2243042.22607422h-.70379638c-.20077515 0-.20077515 0-.20077515.2029419v5.4737854c.0015564.06323242-.0232849.1243286-.06872558.16912841-.04544068.04476929-.10754395.06933594-.17184448.06796265-.12301636.00219727-.24630738.00146484-.36947632.00073242-.06158447-.0003662-.12310791-.00073242-.18460083-.00073242-.16784668.00268555-.32965088-.06155396-.44851685-.1781311-.11886596-.11654663-.18466186-.27548218-.18237304-.44055176-.00186158-.25436402-.00125123-.50875855-.00061036-.76312256.00030518-.12719727.00061036-.25439453.00061036-.3815918-.00054932-.13729858-.00280762-.13729858-.13458252-.09484863-.56192017.18032837-1.13336182.22058105-1.70257569.05514526-.68136596-.1973877-1.07391357-.67105102-1.25393677-1.33273315-.0647583-.23736572-.09738159-.48208618-.09701538-.72784424V6.05273438c0-.16268921 0-.16268921-.1682434-.16268921-.04486084 0-.08972168.00030517-.13458252.00061035l-.00323487.00003052-.0032959.00003051-.00671386.00006104-.00341797.00003052-.00350952.00003051-.00354004.00003052-.00357056.00003052-.00360107.00003052-.00369263.00003051h-.00372314c-.07693482.00030518-.15390015.00061035-.23086548-.00091552-.26141358.00167846-.48269654-.18933106-.51483155-.4444275-.01989746-.14624023-.02270507-.29425048-.00839233-.44110107.01287842-.15109253.06842041-.19741821.2243042-.19741821zm-9.17190552 16.9802246v-3.28747558c0-.24868774.09197998-.3413086.3482666-.33966064.04653931 0 .09310913-.00097656.13970948-.00195313.13806152-.00292968.27612304-.00582885.41323852.0168457.2765503.03979493.49050903.25878907.51983643.5321045.02423095.23583984.0204773.47238159.01669311.7088623l-.00003052.00170899c-.0020752.13034057-.00411987.25939941-.00152587.3883667 0 .03271484.0003662.06542968.00076294.09814453.00073242.06896972.00143432.1326294-.00076294.19628906-.00335694.08325195.01852417.1185913.11218261.09265137.25289917-.06488037.51177979-.10461426.77276612-.11853028.98193359-.07281494 1.76873779.4923706 1.97958374 1.43365479.05029297.21710205.0758667.43902588.07629394.66168213v2.91357422c0 .2277832-.09759521.32647705-.32696533.33087158 0 0-.21981812.0032959-.4385376 0-.17962646.0012207-.35217285-.06872559-.47879028-.19403076-.12658692-.12530518-.19656372-.2954712-.19415283-.4720459 0 0-.00335694-1.23571778 0-2.47088623.00613403-.1626587-.01275635-.32531738-.05609131-.48248291-.08355713-.2668457-.26916504-.4140625-.54675293-.45544434-.25613403-.03063965-.51586914-.01342773-.76550293.05072022-.10653687.02374267-.13961792.07556152-.1390686.18145752 0 0 .0050354 1.70050048 0 3.40045166v.13623047c-.01513672.20623779-.1121521.30273437-.32302857.30548095 0 0-.39816284.00494385-.79632568 0-.2170105 0-.31515503-.10253906-.31515503-.315979v-3.30841065l.00335693-.00219726zm20.76113892.2029419v-3.00405884c0-.31375122.07177734-.40750122.3729248-.50067138.59106446-.18252564 1.19393921-.29501343 1.81472779-.28121948.59835815.0132141 1.15637207.16046142 1.63189697.53927612.41589355.32354736.68267822.79736328.7408142 1.3156433.07766724.56262208.07766724 1.13293458 0 1.69555665-.13961791.91644287-.7654724 1.54064941-1.69918823 1.73309326-.42971801.09875488-.87878418.07965088-1.29824829-.05517578-.10205078-.03527832-.12561035-.00823975-.12506103.09100342.00204468.3204956.00149536.64111328.00097656.96160888l-.00003052.0109253-.00003051.01074219-.00003052.01062011-.00003052.01055908-.00003052.01043702-.00003051.01037597-.00003052.01019287c-.00039673.17248536-.00076294.34490967-.00076294.51727295 0 .24316407-.09475708.33911133-.3364563.34020996-.16113281.00073243-.32626343.00048829-.49139404.00024414-.08258057-.00012207-.16513062-.00024414-.24719239-.00024414-.2461853 0-.3560791-.10253906-.35888671-.35180664V21.9902649h-.00393677zm-24.6715393 2.33795166v.79345703c0 .18029786-.09591676.28564454-.28039552.29003907 0 0-.43237304.00994873-.8647461 0-.1682434-.00384522-.26022338-.09594727-.2803955-.25805664-.00552368-.04498291-.00796509-.09033204-.0072937-.13562012v-6.02798462c0-.05511475.0050354-.10586548.0100708-.15823364.01043701-.14852906.11566162-.2741394.26190186-.3126526.63201904-.2067871 1.2791748-.33084106 1.94708252-.31375121.5243225.01489258 1.02008056.1378479 1.45806884.43450928.50469971.34020996.80697632.81387329.87988282 1.40386962.08151245.58843995.0783081 1.1852417-.009552 1.77276612-.15515137.90441894-.9020691 1.59765625-1.82928467 1.6977539-.40097046.04797364-.79858399.04742432-1.18441773-.09094238-.08578491-.03088379-.09924316.00714111-.09924316.0783081v.8270874l-.00167847-.0005493zm.0467224-3.10113525c-.0003662-.13085938-.00073242-.26165772-.00073242-.39257813h.00390625v-1.18881225c0-.07058716.009552-.12350464.09030151-.14776612.35610962-.10586547.70996094-.12628173 1.05651856.03253174.29385376.13452149.43014526.37496949.48620605.6820984.05361939.28588866.04904175.57183837.04446412.85778808-.0015564.09674072-.0031128.19348144-.0024109.29022217 0 .51611328-.3729248.89379882-.8972473.92193603-.22375489.012146-.44470216.00994873-.65612794-.08435059-.08181762-.02459716-.13446045-.10272216-.12561035-.18640136.00222778-.26171875.00149536-.52313233.00073242-.78466797zm26.10705567.00177002c-.00030518-.13220215-.00061035-.2644043-.00061035-.39654541l-.00280762-.00219727c0-.13104248.00061035-.26208496.00125122-.3930664.00125122-.26190186.00250244-.52374268-.00125122-.78582764-.0057373-.03860474.0045166-.07781982.02844238-.10891724.02392578-.0310974.0595398-.05145263.09887695-.05651855.36001587-.09262085.71444703-.1064148 1.05596924.06451416.1949768.0897522.3400879.25906372.3970337.46316528.05993652.19006348.09332275.38726807.09927368.58618164v.75982666c-.00506592.52215576-.37686158.90045166-.90905762.92523194-.22433472.01104736-.44528198.00720214-.65557861-.09039307-.0732422-.02508545-.11956788-.09613037-.1121521-.1720581.00186157-.26434327.00125122-.52886963.00061035-.793396zm-4.20870972 1.99285889c.13208008-.00036622.2642212-.00073243.39639282-.00073243v.00274659h1.15524292c.20355225-.00054932.3117981-.08544922.31570435-.2789917.00128174-.06915284.0029602-.13830567.00463867-.20751954.00946045-.38818359.0189209-.77661132-.04388428-1.16107177-.12057495-.72839356-.53723144-1.22467041-1.26626587-1.43365479-.53549194-.1531372-1.10446167-.15179443-1.63922119.00384522-.77947998.2189331-1.29598999.8270874-1.34588623 1.59466552-.04907226.6819458-.04907226 1.36651612 0 2.04846192.04989624.6385498.3678894 1.15020752.960083 1.42590332.95111085.4477539 1.902771.35681152 2.82919312-.1036377.0968628-.0567627.17062378-.14483642.20861817-.24920654.10653686-.22888184.0072937-.42022705-.1121521-.60656738-.17889404-.28009033-.2388916-.29663086-.53948975-.15551758-.38076782.1786499-.77670288.28234863-1.20401.24926758-.3673401-.02868653-.62921143-.26361084-.67745972-.61425781-.0112915-.08294678-.00146485-.1636963.00836181-.2444458.00576783-.04718018.01150513-.09423829.01293946-.14154053.00338745-.09210205.04489135-.128479.14471435-.128479.26419068.00219726.52816773.00146484.79248047.00073242zm12.12200928-.1661377c-.07736206.12463379-.18841553.16925049-.33926392.16815186-.3925476-.00280762-.78509521-.00274659-1.17767334-.00268555-.3729248.00006103-.7458496.00012207-1.11877441-.0022583-.1121521 0-.16262818.02539062-.1581421.14282226.00216676.04736328-.0038452.0949707-.00988769.14257813-.00488281.0388794-.00979614.07769775-.01031494.11657715-.00616455.4163208.26638794.6953125.69146729.72564697.42507934.03033447.82885742-.0848999 1.21469116-.26135254.27532959-.1251831.32974243-.11029053.49853515.14337158.11999512.17974854.2243042.36279297.1413269.59161377-.04492187.13446045-.14068603.24682617-.26751708.31378174-.58602905.30493164-1.21356201.39367676-1.86743164.33746338-.3078003-.0222168-.60821533-.10327149-.8843689-.23876953-.64883423-.33087158-.97354126-.86901856-1.00439453-1.56872559-.02438354-.55249023-.01470947-1.10687256-.0050354-1.66046142l.00167847-.09631348c.01626587-.99969482.70773315-1.72869873 1.73846435-1.84777832.36657715-.04980469.73913574-.03729248 1.1013794.03692627.82214355.18475342 1.31506347.7130127 1.43395996 1.53405762.00448608.0291748.01290893.05841064.0196228.08764648l.00167847 1.33770752zm-25.02841187-.66558838c.00234986.11999512.00448609.23010254-.0003662.32922363l.00222777.00109864c0 .12329101-.00048828.23724365-.00094604.3451538l-.00003052.0043335v.00366211c-.00079345.19641113-.00149536.3729248.00097656.54949951.009552.81878662.5013733 1.48492432 1.28982544 1.75231934.4538269.15075683.93722535.19494629 1.41152955.12902832.44189453-.05566406.85464477-.18963623 1.20065307-.4796753.46096802-.38598632.63763428-.90490722.64379883-1.4711914.00125122-.1161499.0032959-.2322998.00531006-.34851074.0078125-.45159912.015625-.90167237-.02044678-1.3503418-.06225586-.76867676-.44750976-1.3178711-1.18383789-1.59906006-.63040161-.23937988-1.32476807-.26135254-1.96951294-.0623169-.80026245.23321534-1.259552.76312257-1.36105347 1.58251954-.02609253.20916748-.02194213.42034912-.01812744.61425781zm5.3770752-1.6072998v2.1196289l-.00054932-.00109863v2.1763916c.00054932.175354.099823.28723145.2680664.29058838.29608155.00604248.59274293.00549316.88885499 0 .15078735.00006104.2746582-.11706543.2803955-.26525879v-.13562012c.00393677-1.7347412 0-3.46832275 0-3.46832275-.00054931-.105896.03027344-.15441895.14242554-.17150879.21661377-.03326416.4359436-.0460205.6550293-.0380249.3656311.0159912.60229492.21392822.67630005.56738281.03250122.1784668.04660034.35968018.04205322.54089356 0 .26837158-.00036621.53668212-.00073242.80499267-.00076294.53649902-.00149536 1.07293701.00073242 1.60961914.00112915.31097412.20358276.53649903.51593018.58673096.13800049.02191162.27694702.01867676.41564941.01550293.04956055-.00115967.09909058-.00231934.14852905-.00231934.25009156.00164795.34207154-.09094238.34207154-.33410644v-2.84527588c.00390625-.15478516-.0045166-.30963135-.02523804-.4631958-.07513428-.46868897-.24899292-.88720703-.62472534-1.20422363-.46826172-.39483643-1.0357666-.49627686-1.62628174-.49627686-.60882568.003479-1.21295166.10498047-1.78839111.3005371-.23046875.0755005-.31011963.17364503-.31011963.41296388zm18.2269287 1.5880127h-.6460266l.0072937.00274657c-.06808472 0-.1361084-.00054931-.20410156-.00109863h-.00289917l-.00494385-.00006103-.00463867-.00006104c-.13571167-.00097656-.26516724-.00195312-.39468384.0012207-.09814453.00274659-.13964844-.01708984-.13571167-.12738037.002594-.07354736.0017395-.14703369.0008545-.22058105-.00042726-.03674317-.0008545-.07348633-.0008545-.1102295.0100708-.5166626.37460327-.76757812.8703308-.70526122.39144898.04907226.6135254.30657958.62753297.69256591v.36224366c0 .0783081-.0342102.105896-.1121521.105896zm-10.90689086.00274657h.65670776c.07177735 0 .10653687-.02313232.10430909-.09814453-.00146485-.05059814-.00100708-.10131836-.00054932-.15441894.00061035-.06555176.00119018-.13110352-.0022583-.19628907-.02075196-.40142822-.24563599-.66168212-.63763428-.7113037-.4048767-.05236817-.79238892.10205077-.86306763.60327148-.01324463.09368896-.01217651.18756103-.0111084.2814331.0006714.0569458.00131226.11383057-.0012207.17071534-.00393677.07940673.03140259.10583496.10934448.10473632.14352417-.00183105.28683472-.0012207.43023682-.00061035.07171631.00030518.14343262.00061035.21524048.00061035zm-11.18444824.3605957c0 .10668946-.00048828.20617676-.00094605.3008423-.00085449.17633056-.00161743.3361206.00094605.49542236.00842285.43286132.21478271.68206787.6409912.73498535.50469972.06341552.942688-.1102295.95840455-.71350098.01287842-.50177002.00897217-1.00408936 0-1.5064087-.0072937-.409729-.22433472-.67108153-.59222412-.7427368-.11038208-.01672364-.22241211-.02026368-.33364868-.01049805-.362854.01708984-.60845948.24371337-.65612793.59661865-.02456665.18585205-.02114868.37225342-.01797486.54510498.00198365.10791015.0038147.20843506-.00109863.3001709h.00167847z"/>
    <path fill="rgb(95,37,159)" fill-rule="evenodd" d="M18.57709523 7.2972423c0 .4196183-.00280397.83868519 0 1.25775208.01081086.08437913-.04521045.1630696-.12954326.18196326-.27386245.09259242-.56454906.12716888-.85296668.1014583-.49069417-.04576652-.76492212-.33084228-.80642083-.81993746-.03813394-.4488427-.01009428-.8982368-.01794538-1.34763091-.00336476-.22056152 0-.43781462 0-.65672194 0-.09098162.03028284-.12792568.12730009-.12737428.51536908.00330843 1.03073816.00441124 1.54554645 0 .11215867 0 .13571199.04466371.1351512.14226219-.00336477.42292672 0 .84585344 0 1.26822876"/>
  </g>
</svg>
