<svg xmlns="http://www.w3.org/2000/svg" width="23" height="20" viewBox="0 0 23 20">
  <defs>
    <linearGradient id="linearGradient-2" x1="8.378" x2="11.771" y1="15.418" y2="18.909" gradientUnits="userSpaceOnUse">
      <stop offset="0" stop-color="rgb(255,108,52)"/>
      <stop offset="1" stop-color="rgb(255,163,38)"/>
    </linearGradient>
    <linearGradient id="linearGradient-4" x1="16.75" x2="20.143" y1="15.418" y2="18.909" gradientUnits="userSpaceOnUse">
      <stop offset="0" stop-color="rgb(255,108,52)"/>
      <stop offset="1" stop-color="rgb(255,163,38)"/>
    </linearGradient>
    <linearGradient id="linearGradient-6" x1="8.51" x2="23" y1="2.111" y2="10.555" gradientUnits="userSpaceOnUse">
      <stop offset="0" stop-color="rgb(255,108,52)"/>
      <stop offset="1" stop-color="rgb(255,163,38)"/>
    </linearGradient>
  </defs>
  <g>
    <path fill="url(#linearGradient-2)" fill-rule="evenodd" d="M6.38537598 17.28063965c-.00436402-1.50512695 1.1960144-2.72930908 2.68203735-2.7352295.71548462-.00280761 1.40264893.28289796 1.90982056.79412842.50717163.51116944.79260254 1.20581055.79327392 1.93048096.00146485 1.50518799-1.20129394 2.72692871-2.6873169 2.72991943-1.48605346.0029297-2.69348144-1.21411132-2.69781493-2.71929931zm1.57919311-.01763916c-.00384521.62139892.48931885 1.12884521 1.10281372 1.13470459.29711914.00286865.58300782-.11468506.79406739-.32647705.21109008-.211792.32983398-.50024414.32983398-.8012085-.00003052-.62139892-.4963684-1.12567139-1.1098938-1.12762451-.61349487-.00195313-1.11294556.49920654-1.11682129 1.12060547z"/>
    <path fill="url(#linearGradient-4)" fill-rule="evenodd" d="M14.96334839 16.22772217c.41741943-1.01934815 1.40020752-1.68341065 2.4897461-1.68231201 1.48501586.00146484 2.68847655 1.22039795 2.6899414 2.72454834.00106811 1.10357666-.65457153 2.09899902-1.6609497 2.52185058-1.0064087.42279053-2.16516114.18963623-2.9355774-.59069824-.77041626-.78033447-1.00061035-1.95404053-.5831604-2.97338867zm1.45925903 1.475708c.17315674.42126465.57992554.69537354 1.03048706.6942749.61325073-.00292968 1.10928345-.50653075 1.11071778-1.12768554 0-.45635986-.27154541-.86773682-.68789673-1.04211426-.41635132-.17437744-.89544678-.07739257-1.21365357.2456665-.31820678.32305909-.41281128.80853272-.23965454 1.2298584z"/>
    <path fill="url(#linearGradient-6)" fill-rule="evenodd" d="M22.82510467 3.61241919c-.14785972-.21401966-.38958848-.34141666-.64748337-.34123965H8.34885055c-.43609169 0-.78961386.3580739-.78961386.79978043s.35352217.79978043.78961386.79978043H21.0432094l-2.39516205 6.72348747H7.1723259L4.96930323.63990192C4.8942475.26747117 4.57076033 0 4.19548165.00007758H.78961386C.35352216.00007758 0 .35815148 0 .79985801s.35352217.79978043.78961386.79978043h2.76101647L5.753653 12.55396439c.07505573.37243076.3985429.63990192.77382158.63982434h12.67330247c.33477685.00017777.63327682-.21349239.74486907-.53318695l2.96368403-8.31771647c.09066985-.24289927.05926493-.51526614-.08422548-.73046612z"/>
  </g>
</svg>
