<svg xmlns="http://www.w3.org/2000/svg" xmlns:xlink="http://www.w3.org/1999/xlink" width="28" height="28" viewBox="0 0 28 28">
  <defs>
    <path id="path-1" fill-rule="evenodd" d="M14 2C8.47714233 2 4 6.47714996 4 12c0 5.5228424 4.47714233 10 10 10s10-4.4771576 10-10c-.0164795-5.51600647-4.48397827-9.98352814-10-10zm1.5 10l1.1000061-1.19999695c.5643921-.59507751.88549805-1.3799591.8999939-2.2000122-.00820923-.89933014-.38986206-1.75479127-1.05361938-2.36166382C15.78262329 5.63145447 14.89645386 5.3277893 14 5.40000153 12.52609253 5.26744843 11.14135742 6.12273407 10.6000061 7.5c-.07250976.15638733-.106781.32775879-.1000061.5-.01486206.29603577.09625244.58454895.30584717.79414368.20959472.20959472.4981079.32070923.79415893.30584716.50119019.01635743.9675293-.255661 1.1999817-.69999694C12.93200683 7.8507843 13.43579101 7.4729538 14 7.5c.29605103-.01486206.5845337.09625244.79412842.3058548.20962524.2095871.32073974.49810028.30587768.79413604C15.04000854 9.13490295 14.79193115 9.631073 14.3999939 10L13.5 11.1000061c-.53140259.44343567-.82693481 1.10838318-.80001831 1.7999878-.01278687.32202148.10952759.63475036.33740234.86262512.22787476.22787475.54058838.3501892.86260987.33738708.65908813-.00875854 1.19125366-.54092407 1.2000122-1.2000122.00106812-.34284973.14624024-.66944886.3999939-.8999939zm-1.6000061 6.6000061c-.56625367 0-1.07675171-.34109497-1.29342652-.86424255-.21670532-.52314758-.09692383-1.12530518.3034668-1.52571106.40039062-.40039062 1.00256348-.52017212 1.5256958-.30348206.52316284.21669007.86425781.72718811.86425781 1.29344178.00900269.37397766-.13562011.7353363-.40014648.99986267-.26452637.26452637-.6258545.4091339-.99984741.40013122z"/>
    <filter id="filter-2" width="200%" height="200%" x="-50%" y="-50%" color-interpolation-filters="sRGB" filterUnits="userSpaceOnUse">
      <feOffset dx="0" dy="2" in="SourceAlpha" result="shadow-1-feOffset-shadow"/>
      <feGaussianBlur in="shadow-1-feOffset-shadow" result="shadow-1-feGaussianBlur-shadow" stdDeviation="2.41"/>
      <feColorMatrix in="shadow-1-feGaussianBlur-shadow" result="shadow-1-feColorMatrix-shadow" type="matrix" values="0 0 0 0 0.30196078431372547  0 0 0 0 0.30196078431372547  0 0 0 0 0.30196078431372547  0 0 0 1 0"/>
    </filter>
    <linearGradient id="linearGradient-3" x1="9.4" x2="24" y1="6" y2="18.2" gradientUnits="userSpaceOnUse">
      <stop offset="0" stop-color="rgb(255,108,52)"/>
      <stop offset="1" stop-color="rgb(255,163,38)"/>
    </linearGradient>
  </defs>
  <g>
    <use fill="black" stroke="black" stroke-opacity="0" stroke-width="0" filter="url(#filter-2)" xlink:href="#path-1"/>
    <use fill="url(#linearGradient-3)" xlink:href="#path-1"/>
  </g>
</svg>
