<svg xmlns="http://www.w3.org/2000/svg" xmlns:xlink="http://www.w3.org/1999/xlink" width="24" height="21.601" viewBox="0 0 24 21.601">
  <defs>
    <path id="path-1" fill-rule="evenodd" d="M23.8616 11.0328c.01413333-.01813333.028-.03626667.04-.056.01146667-.0184.02133333-.03733333.03066667-.05653333.00853333-.0176.0168-.03493334.02373333-.05333334.0088-.02293333.01546667-.04613333.0216-.0696.004-.016.00826667-.032.0112-.04853333.0048-.02773333.0072-.05546667.00853333-.08373333C23.9976 10.65573333 24 10.6472 24 10.6376c0-.0048-.00133333-.00933333-.00133333-.01413333-.00053334-.03013334-.00426667-.05973334-.00906667-.08933334-.00186667-.01226666-.0032-.0248-.00586667-.0368-.0064-.02933333-.016-.05786666-.02666666-.08613333-.004-.01066667-.0072-.02186667-.01173334-.03226667-.01226666-.02773333-.02746666-.05413333-.04373333-.08026666-.00586667-.00933334-.01093333-.01893334-.01706667-.028-.01653333-.02373334-.03573333-.04586667-.056-.06773334-.0088-.0096-.01733333-.01973333-.02666666-.0288-.0072-.00693333-.01253334-.01493333-.02-.02133333L12.4264.16026667C12.42133333.15573333 12.4152.1528 12.41013333.14853333c-.00186666-.00133333-.0032-.0024-.0048-.00373333-.01546666-.0128-.02826666-.0232-.0464-.0336-.00106666-.0008-.0024-.00133333-.00346666-.00213333-.06026667-.04-.1248-.0688-.19226667-.0864-.00773333-.0024-.01546667-.0048-.02373333-.0072C12.13253333.0136 12.12426667.01333333 12.11653333.012 12.09626667.00826667 12.07626667.00533333 12.056.00346667 12.0448.0024 12.0336.00186667 12.02346667 0c-.01173334 0-.0232.00053333-.03493334.00133333C11.9696.0016 11.95066667.00266667 11.93173333.0048c-.0096.0008-.0192.0016-.02986666.00293333-.0088.00106667-.01733334.004-.0256.00586667-.02213334.00426667-.04373334.00933333-.06506667.01573333-.00853333.00213334-.01733333.004-.02533333.00666667-.0112.00373333-.02266667.00986667-.03386667.0152-.01786667.00746667-.0352.0152-.05253333.02426667C11.6912.0792 11.68266667.0832 11.67493333.08773333 11.6664.0928 11.65813333.10026667 11.6496.10586667c-.01946667.0128-.03866667.02586666-.05706667.04106666C11.58666667.15173333 11.58.15493333 11.5744.16L1.97946667 8.60426667l-1.76 1.54826666c-.00773334.00506667-.0128.0128-.01813334.02053334-.0128.0104-.0232.0232-.0336.0336-.01813333.02053333-.036.03866666-.04906666.06186666-.0104.0104-.01546667.0232-.0232.036C.08 10.32773333.0672 10.35093333.0568 10.3768c-.00773333.0128-.0104.02826667-.01546667.04133333-.0104.02586667-.01813333.04906667-.0232.07493334-.00506666.01546666-.00506666.0336-.00773333.04906666-.00506667.02586667-.00773333.05173334-.00773333.07733334C.00266667 10.6248 0 10.63253333 0 10.6376c0 .0128.00266667.0232.00266667.0336.00266666.02586667.00506666.04906667.00773333.07226667.00266667.02053333.00773333.04133333.0128.05946666.00506667.02053334.0128.04133334.02053333.05946667.00773334.0232.01546667.044.02586667.06186667.0104.01813333.01813333.0336.02826667.04906666.0128.0232.02826666.044.04373333.06453334.00773333.00773333.0104.01813333.01813333.02586666.00506667.00266667.00773334.00506667.0128.0104.02053334.0232.0464.0464.07226667.0672.0104.00773334.01813333.01546667.02586667.02053334.0336.0232.0696.04373333.10586666.06186666.00266667 0 .00506667.00266667.00773334.00266667.08.036.16773333.0568.26053333.0568H1.76v9.67226667c0 .35626666.2888.64506666.64506667.64506666h6.1232c.1984 0 .3592-.1608.3592-.3592v-5.81866666c0-.30773334.24933333-.55706667.55706666-.55706667h5.11093334c.30773333 0 .55706666.24933333.55706666.55706667v5.81866666c0 .1984.1608.3592.3592.3592h6.1232c.35626667 0 .64506667-.2888.64506667-.64506666v-9.67253334h1.11493333c.09253334 0 .18026667-.02026666.26-.05546666.0056-.0024.01066667-.00613334.016-.0088.03386667-.016.06613334-.03413334.09653334-.05573334.0112-.00773333.02106666-.0176.03146666-.02613333.02373334-.01946667.04693334-.03946667.06773334-.06186667.00426666-.00453333.00933333-.00746666.01333333-.01226666.00826667-.00933334.01386667-.02.0216-.02986667z"/>
    <linearGradient id="linearGradient-2" x1="12" x2="12" y1="0" y2="21.601" gradientUnits="userSpaceOnUse">
      <stop offset="0" stop-color="rgb(255,108,52)"/>
      <stop offset="1" stop-color="rgb(255,163,38)"/>
    </linearGradient>
    <mask id="mask-3" x="0" y="0" maskContentUnits="userSpaceOnUse" maskUnits="userSpaceOnUse">
      <rect width="24" height="21.601" x="0" y="0" fill="black"/>
      <use fill="white" xlink:href="#path-1"/>
    </mask>
  </defs>
  <use fill-opacity="0" stroke="url(#linearGradient-2)" stroke-linecap="round" stroke-linejoin="round" stroke-width="2.8" mask="url(#mask-3)" xlink:href="#path-1"/>
</svg>
