<svg xmlns="http://www.w3.org/2000/svg" width="32" height="31.99" viewBox="0 0 32 31.99">
  <defs>
    <linearGradient id="linearGradient-2" x1="5.76" x2="34.88" y1="4.159" y2="29.111" gradientUnits="userSpaceOnUse">
      <stop offset="0" stop-color="rgb(255,108,52)"/>
      <stop offset="1" stop-color="rgb(255,163,38)"/>
    </linearGradient>
  </defs>
  <path fill="url(#linearGradient-2)" fill-rule="evenodd" d="M18.60977213 22.79030743l3.41784818-3.13468924c.22750722-.2192808.54188483-.32407334.85545909-.28515303l.57030606.28515303 7.97630848 3.70300122C32 23.64377243 32 23.92892546 32 24.49723744c-.03781939 1.94624477-.85964932 3.79482286-2.27923015 5.12677228-1.6003574 1.5429054-3.76093511 2.36608551-5.98223137 2.27923015-2.78014174-.01596662-5.51572853-.69986332-7.97630848-1.99407712-2.8975351-1.54032009-5.57940183-3.4558434-7.9763085-5.69707834-1.58640443-1.97370551-3.01587134-4.06856793-4.27530134-6.26539031-1.13032268-2.00199476-2.08314346-4.09913463-2.84754213-6.2673844C.19242003 9.91601998 0 8.0900481.09277197 6.2673844.27972706 4.66531814.97913594 3.1664849 2.0868491 1.99407711 3.61007823.73069628 5.51997918.0269745 7.4987744 0c.4461168.0086919.86448725.21824348 1.13861804.57030606l4.27330727 7.97630848c.03006336.2161899.13023913.41654145.28515303.57030606.03882123.31260051-.06517867.626065-.28315895.853465l-3.7049953 3.4178482c-.2904242.43015928-.2904242.99361177 0 1.42377106.97720947 1.63502664 2.12344463 3.16289462 3.41984227 4.5584603 1.38915838 1.38663726 2.91660563 2.62743758 4.5584603 3.70300122.56831198.28515303 1.13861804.28515303 1.42377107-.28315895z"/>
</svg>
